<svg width="20" height="22" viewBox="0 0 20 22" fill="none" xmlns="http://www.w3.org/2000/svg">
<g id="Vector">
<path d="M5.75 1.625C5.75 1.21079 5.41421 0.875 5 0.875C4.58579 0.875 4.25 1.21079 4.25 1.625V3.20426C2.81067 3.31951 1.86577 3.60237 1.17157 4.29657C0.47737 4.99077 0.19451 5.93567 0.0792601 7.375H19.9207C19.8055 5.93567 19.5226 4.99077 18.8284 4.29657C18.1342 3.60237 17.1893 3.31951 15.75 3.20426V1.625C15.75 1.21079 15.4142 0.875 15 0.875C14.5858 0.875 14.25 1.21079 14.25 1.625V3.1379C13.5847 3.125 12.839 3.125 12 3.125H8C7.16097 3.125 6.41527 3.125 5.75 3.1379V1.625Z" fill="#464646"/>
<path fill-rule="evenodd" clip-rule="evenodd" d="M0 11.125C0 10.286 1.13621e-07 9.5403 0.0129001 8.875H19.9871C20 9.5403 20 10.286 20 11.125V13.125C20 16.8962 20 18.7819 18.8284 19.9534C17.6569 21.125 15.7712 21.125 12 21.125H8C4.22876 21.125 2.34315 21.125 1.17157 19.9534C1.19209e-07 18.7819 0 16.8962 0 13.125V11.125ZM15 13.125C15.5523 13.125 16 12.6773 16 12.125C16 11.5727 15.5523 11.125 15 11.125C14.4477 11.125 14 11.5727 14 12.125C14 12.6773 14.4477 13.125 15 13.125ZM15 17.125C15.5523 17.125 16 16.6773 16 16.125C16 15.5727 15.5523 15.125 15 15.125C14.4477 15.125 14 15.5727 14 16.125C14 16.6773 14.4477 17.125 15 17.125ZM11 12.125C11 12.6773 10.5523 13.125 10 13.125C9.4477 13.125 9 12.6773 9 12.125C9 11.5727 9.4477 11.125 10 11.125C10.5523 11.125 11 11.5727 11 12.125ZM11 16.125C11 16.6773 10.5523 17.125 10 17.125C9.4477 17.125 9 16.6773 9 16.125C9 15.5727 9.4477 15.125 10 15.125C10.5523 15.125 11 15.5727 11 16.125ZM5 13.125C5.55228 13.125 6 12.6773 6 12.125C6 11.5727 5.55228 11.125 5 11.125C4.44772 11.125 4 11.5727 4 12.125C4 12.6773 4.44772 13.125 5 13.125ZM5 17.125C5.55228 17.125 6 16.6773 6 16.125C6 15.5727 5.55228 15.125 5 15.125C4.44772 15.125 4 15.5727 4 16.125C4 16.6773 4.44772 17.125 5 17.125Z" fill="#464646"/>
</g>
</svg>
