<?xml version="1.0" standalone="no"?>
<!DOCTYPE svg PUBLIC "-//W3C//DTD SVG 20010904//EN"
 "http://www.w3.org/TR/2001/REC-SVG-20010904/DTD/svg10.dtd">
<svg version="1.0" xmlns="http://www.w3.org/2000/svg"
 width="1024.000000pt" height="1024.000000pt" viewBox="0 0 1024.000000 1024.000000"
 preserveAspectRatio="xMidYMid meet">

<g transform="translate(0.000000,1024.000000) scale(0.100000,-0.100000)"
fill="#000000" stroke="none">
<path d="M5095 8334 c-44 -19 -99 -44 -122 -55 -37 -18 -49 -19 -95 -10 -125
25 -267 34 -427 27 l-163 -7 -180 -60 c-99 -33 -188 -65 -198 -72 -16 -11 -16
-19 7 -136 20 -100 22 -126 11 -132 -7 -5 -164 -79 -348 -165 -184 -87 -438
-206 -565 -265 l-230 -108 -3 -1186 c-1 -652 -6 -1185 -11 -1185 -9 0 -20 160
-23 339 -1 101 -3 114 -8 66 -4 -33 -7 -49 -8 -35 -2 24 -5 26 -37 22 -41 -5
-48 15 -7 21 l27 4 -29 2 c-24 1 -27 3 -16 16 8 9 8 15 2 15 -6 0 -13 8 -16
18 -3 10 -4 6 -3 -8 1 -16 -3 -24 -11 -22 -7 1 -20 -4 -28 -13 -9 -8 -23 -15
-32 -14 -14 0 -14 2 2 8 18 7 18 8 3 14 -9 3 -24 4 -32 1 -8 -4 -15 -1 -15 4
0 6 10 13 23 15 15 3 12 5 -13 6 -19 2 -29 5 -22 8 6 2 12 9 12 14 0 6 -4 7
-10 4 -7 -4 -11 75 -12 227 -2 144 -4 55 -8 -234 -5 -451 -6 -468 -25 -482
-14 -10 -19 -24 -17 -48 1 -18 -6 -68 -16 -111 -11 -42 -16 -79 -12 -82 4 -2
38 -2 75 1 l68 6 284 -284 284 -284 286 283 287 283 70 -4 c39 -2 105 -4 146
-5 l75 -1 0 -495 0 -496 -25 7 c-14 4 -54 6 -90 5 -88 -4 -240 9 -240 20 0 5
68 9 150 9 l150 0 -1 73 c0 39 -3 65 -6 57 -2 -8 -7 -21 -9 -29 -3 -10 -8 -10
-17 -2 -10 8 -17 7 -25 -1 -9 -9 -12 -9 -12 0 0 22 -56 14 -68 -10 -9 -19 -11
-20 -11 -5 -1 14 -8 18 -31 15 -20 -2 -36 4 -50 20 -25 26 -43 25 -48 -4 -2
-10 -8 -23 -13 -29 -5 -5 -10 57 -11 155 -2 231 -2 230 -10 230 -8 0 -23 -41
-20 -54 2 -5 -3 -6 -11 -3 -8 3 -101 -83 -237 -219 -123 -123 -227 -224 -232
-224 -16 0 13 44 66 100 28 30 38 43 21 30 -16 -14 -36 -33 -43 -43 -10 -13
-17 -15 -27 -7 -10 8 -15 8 -21 -1 -4 -7 -3 -9 4 -5 6 3 13 2 17 -4 3 -5 -1
-10 -10 -10 -9 0 -13 -5 -9 -11 4 -7 1 -10 -7 -7 -8 3 -13 12 -11 21 2 11 -2
15 -11 12 -7 -3 -26 8 -41 25 -26 30 -27 32 -9 46 17 14 17 15 -3 5 -23 -11
-50 1 -40 18 5 7 1 8 -10 4 -13 -5 -15 -3 -9 8 4 8 5 11 0 7 -4 -5 -55 38
-113 95 -140 136 -141 137 -149 137 -4 0 77 -85 180 -188 103 -104 187 -192
187 -197 0 -10 -126 110 -339 325 -74 74 -128 127 -121 117 10 -13 15 -81 18
-254 4 -220 4 -236 -12 -230 -10 4 -22 7 -27 7 -5 0 -9 57 -9 128 0 73 -4 121
-9 114 -7 -11 -9 -10 -15 3 -5 15 -7 15 -22 1 -8 -9 -20 -16 -27 -16 -6 0 -2
7 9 15 15 11 16 14 3 15 -8 0 -20 -5 -27 -12 -9 -9 -16 -8 -30 5 -19 18 -47
24 -38 8 6 -9 -35 -24 -43 -16 -2 3 1 5 7 5 7 0 11 10 11 23 -1 16 -2 18 -6 5
-5 -19 -43 -25 -43 -8 0 14 -27 12 -33 -2 -4 -10 -6 -10 -6 0 -1 6 -9 12 -18
13 -12 1 -10 4 7 9 24 8 24 8 3 9 -21 1 -23 6 -24 54 -1 28 -2 59 -3 67 -2 8
-4 71 -5 140 l-3 125 -14 -90 c-18 -124 -24 -557 -7 -562 16 -6 17 -30 1 -35
-7 -3 10 -42 43 -104 75 -138 133 -192 374 -348 110 -71 274 -180 365 -241
410 -278 550 -372 615 -419 39 -27 156 -109 260 -181 105 -72 264 -184 355
-248 91 -63 187 -131 213 -149 26 -18 70 -49 97 -68 354 -251 540 -379 561
-385 29 -9 65 12 344 207 143 99 377 262 520 361 143 99 324 226 402 281 78
56 216 153 307 216 241 168 281 196 422 295 177 125 304 214 409 286 111 77
280 203 319 238 16 14 66 73 112 130 l84 104 0 95 c0 53 -2 93 -5 90 -3 -3 -6
-40 -6 -82 l0 -76 -472 0 c-260 0 -489 3 -509 6 -106 18 6 24 450 26 469 3
473 3 118 5 -281 3 -372 6 -378 16 -6 9 -8 9 -8 0 0 -10 -29 -13 -109 -13
-104 0 -109 1 -115 23 -3 12 -6 94 -7 182 -1 88 -4 223 -8 300 l-6 140 -14
-145 c-8 -86 -12 -225 -10 -343 3 -127 0 -197 -6 -197 -6 0 -9 89 -7 252 1
139 -1 362 -5 494 l-8 241 403 -2 c378 -2 403 -1 412 16 6 10 10 26 10 37 0
10 20 44 45 76 52 68 63 95 43 110 -10 8 -17 40 -21 105 -6 97 -18 122 -44 95
-8 -8 -23 -14 -33 -14 -10 0 -21 -6 -23 -12 -4 -10 -8 -9 -16 2 -5 8 -13 11
-17 7 -16 -16 31 -37 71 -32 l40 5 -33 -15 c-18 -8 -38 -12 -45 -9 -9 3 -13
-5 -12 -23 0 -25 4 -28 32 -26 18 2 35 -2 38 -7 4 -7 -13 -10 -47 -9 -29 2
-47 4 -40 7 10 3 10 7 1 18 -8 10 -8 14 0 14 17 0 13 17 -6 24 -10 3 -29 10
-42 16 -21 9 -22 8 -11 -5 8 -10 9 -15 1 -15 -6 0 -11 -5 -11 -10 0 -6 12 -8
28 -4 18 4 23 3 13 -4 -9 -7 -10 -12 -2 -16 21 -13 0 -26 -40 -26 l-39 0 -2
73 c-1 54 -2 60 -5 22 -5 -90 -14 -155 -21 -155 -4 0 -6 535 -6 1188 l2 1188
-92 42 c-146 66 -492 207 -605 246 -58 20 -114 42 -125 50 -12 8 -84 71 -160
140 l-139 127 -21 -20 c-25 -23 -68 -41 -99 -41 -25 0 -194 68 -933 371 -133
54 -246 99 -250 99 -5 0 -45 -16 -89 -36z m-650 -184 c300 -17 515 -56 765
-141 80 -27 159 -56 175 -63 17 -8 55 -24 85 -36 82 -32 341 -168 476 -250 65
-40 129 -72 141 -72 12 0 47 10 78 23 53 22 58 22 83 8 281 -168 303 -189 358
-344 25 -71 35 -87 93 -142 l66 -62 -105 -106 c-136 -137 -180 -169 -267 -193
l-71 -20 -128 69 c-145 78 -215 139 -264 230 -17 32 -43 68 -58 79 -57 45
-183 173 -175 179 33 23 221 241 213 246 -6 4 -54 -36 -107 -89 l-97 -95 -45
35 c-227 174 -311 232 -466 317 -255 141 -710 314 -1033 392 -40 9 -70 20 -67
24 6 5 88 16 155 19 14 1 102 -3 195 -8z m1595 -346 c0 -25 -14 -32 -25 -14
-4 6 -11 8 -16 5 -5 -4 -9 3 -9 14 0 10 6 21 13 24 22 7 37 -4 37 -29z m404
-30 c51 -35 376 -369 372 -381 -3 -7 -1 -13 5 -13 6 0 9 -12 7 -27 -2 -22 -8
-28 -26 -27 -12 0 -21 -4 -19 -10 2 -6 17 -10 33 -9 16 1 22 0 14 -4 -8 -3
-27 -17 -42 -31 -16 -14 -28 -21 -28 -14 0 6 4 13 9 17 11 6 6 44 -7 57 -5 5
-14 2 -22 -7 -7 -8 -15 -15 -19 -15 -4 0 -74 67 -156 148 -83 81 -180 176
-218 211 l-67 63 21 26 c11 15 28 30 37 34 23 10 81 0 106 -18z m-2213 -138
c43 -29 78 -90 79 -139 0 -59 -46 -134 -102 -163 -39 -20 -117 -18 -154 5 -68
41 -104 120 -90 196 8 42 58 102 101 122 45 20 117 11 166 -21z m294 4 c0 -19
-4 -24 -20 -22 -28 5 -39 18 -31 37 10 27 51 15 51 -15z m517 -108 c30 -6 36
-10 28 -22 -7 -12 -40 -16 -168 -18 l-159 -3 -127 -128 -127 -127 1 -317 c0
-174 3 -323 6 -332 5 -12 27 -15 120 -15 92 0 114 -3 114 -14 0 -17 -83 -30
-154 -24 -25 2 -46 2 -46 1 0 -2 60 -66 134 -143 126 -131 185 -200 172 -200
-25 0 -140 94 -292 239 l-111 106 -5 363 -6 362 145 140 145 140 147 -1 c80 0
163 -3 183 -7z m278 -181 c0 -19 -18 -31 -46 -31 -14 0 -20 31 -7 43 3 4 17 7
30 7 16 0 23 -6 23 -19z m-1550 -55 c74 -49 95 -140 51 -224 l-22 -43 83 -88
c46 -48 180 -189 298 -312 418 -436 540 -572 527 -586 -4 -3 -24 6 -45 21 -52
35 -527 518 -808 820 -104 112 -112 118 -134 106 -31 -17 -94 -7 -134 21 -77
53 -105 144 -67 223 18 35 33 50 74 71 64 32 119 30 177 -9z m2990 24 c0 -5
-5 -10 -11 -10 -5 0 -7 5 -4 10 3 6 8 10 11 10 2 0 4 -4 4 -10z m-3520 -35 c0
-31 -26 -43 -47 -22 -13 13 -14 19 -3 31 21 26 50 20 50 -9z m3998 -25 c124
-76 77 -270 -66 -270 -80 0 -158 87 -147 164 15 103 127 158 213 106z m-2179
-51 c46 -26 81 -76 88 -127 7 -55 -34 -145 -76 -167 l-31 -16 0 -269 c0 -148
-4 -271 -8 -274 -5 -3 -18 -2 -30 1 -22 5 -22 7 -22 267 l0 262 -47 12 c-117
32 -169 176 -96 263 60 71 148 90 222 48z m-1908 -28 c16 -16 29 -35 29 -42 0
-6 -12 1 -27 17 l-26 29 -9 -27 c-10 -29 -34 -43 -44 -26 -4 7 -3 8 4 4 7 -4
12 -2 12 3 0 6 -7 11 -15 11 -20 0 -19 24 1 44 23 23 42 20 75 -13z m949 -56
c18 -21 5 -45 -25 -45 -27 0 -41 20 -31 45 7 19 40 19 56 0z m-630 -94 c65
-52 82 -87 78 -162 l-3 -67 259 -262 259 -262 4 -50 c4 -61 1 -57 226 -287
142 -146 167 -176 151 -182 -24 -8 -80 38 -242 200 -64 64 -134 131 -154 148
-35 29 -38 35 -38 85 l0 53 -254 258 -254 258 -41 -20 c-93 -48 -198 -9 -240
89 -41 94 -8 171 94 221 52 25 108 18 155 -20z m1948 -2 c2 -20 -2 -28 -18
-32 -29 -8 -53 19 -39 44 15 30 53 21 57 -12z m596 -168 c139 -139 174 -180
161 -185 -9 -3 -15 -12 -12 -20 6 -15 -11 -36 -27 -36 -6 0 -2 7 8 15 11 8 16
15 11 15 -5 0 -16 -6 -24 -14 -15 -13 -36 4 -198 165 l-181 179 36 30 c20 17
39 30 42 30 3 0 85 -80 184 -179z m799 69 c102 -113 272 -404 347 -595 92
-233 167 -486 201 -685 18 -105 39 -432 26 -420 -3 3 -31 70 -62 150 -204 514
-457 935 -757 1258 -33 35 -58 68 -56 74 5 13 241 266 250 267 3 1 26 -21 51
-49z m-876 -245 l142 -141 -192 -195 c-309 -314 -452 -467 -457 -491 -3 -12
-11 -23 -18 -26 -9 -3 -12 21 -12 90 0 51 -3 117 -6 146 l-7 52 210 208 c227
224 308 315 298 332 -4 6 -51 -37 -108 -97 -56 -59 -173 -179 -261 -268 l-158
-160 1 -175 2 -175 -281 -279 c-197 -196 -284 -276 -289 -267 -6 9 -12 3 -19
-19 -8 -20 -16 -29 -23 -24 -7 4 -9 3 -6 -3 3 -5 -53 -68 -124 -139 -72 -71
-135 -137 -140 -146 -10 -18 -39 -25 -39 -10 0 5 12 20 28 34 15 14 54 54 87
89 138 149 190 202 194 198 11 -10 23 70 17 114 -5 48 -5 48 60 119 36 39 79
96 96 125 16 29 34 56 39 59 5 3 7 10 3 15 -3 6 -21 -11 -39 -38 -36 -53 -138
-159 -209 -218 -45 -37 -46 -39 -46 -95 0 -38 4 -60 12 -62 8 -3 -29 -46 -82
-99 -53 -52 -129 -129 -169 -171 -66 -71 -91 -90 -91 -71 0 3 66 73 147 154
81 81 152 158 159 171 8 15 11 43 7 79 l-6 56 148 146 c136 135 147 149 141
174 -4 16 -10 51 -13 79 -5 50 -5 51 41 91 74 66 139 64 170 -5 30 -67 8 -101
-132 -211 -29 -23 -57 -52 -62 -64 -4 -12 -42 -60 -83 -106 l-75 -83 5 -57 c3
-31 7 -58 9 -60 2 -2 36 32 76 75 40 43 146 155 235 247 l163 169 -6 71 c-3
40 -12 110 -20 157 -8 47 -14 116 -14 154 l0 69 58 66 c61 71 300 313 420 425
39 37 72 70 72 73 0 22 -434 -396 -511 -493 -45 -57 -50 -69 -54 -124 -5 -65
-25 -105 -56 -115 -30 -10 -52 -51 -45 -85 5 -29 4 -30 -30 -30 -19 0 -49 -6
-67 -13 -48 -21 -146 -116 -169 -165 -12 -25 -48 -68 -85 -100 -66 -58 -95
-102 -108 -160 -6 -31 4 -23 106 83 63 64 117 124 121 134 4 9 7 34 9 56 1 37
2 36 10 -17 l8 -57 -150 -150 c-83 -83 -148 -154 -145 -159 3 -5 -38 -52 -92
-104 -53 -53 -155 -159 -227 -237 -71 -77 -137 -141 -144 -141 -15 0 176 206
192 209 11 1 46 43 47 55 0 6 -15 -3 -32 -20 l-33 -29 29 32 c16 18 32 30 36
28 4 -3 14 5 23 18 17 26 85 96 145 150 23 20 37 37 31 37 -18 0 -100 -60
-187 -138 -46 -41 -85 -72 -87 -70 -6 6 149 159 200 198 83 64 78 54 71 138
-3 43 -3 83 2 89 20 30 459 483 510 526 35 30 39 59 9 65 -10 2 -17 -3 -17
-13 0 -9 -31 -47 -69 -83 -38 -37 -163 -165 -277 -286 l-207 -218 7 -90 c5
-79 4 -89 -12 -95 -9 -3 -32 -20 -49 -36 -18 -17 -33 -26 -33 -21 0 6 14 23
30 39 29 28 30 32 30 117 0 50 -4 88 -10 88 -16 0 -30 -37 -30 -80 0 -40 -4
-45 -292 -330 -160 -160 -296 -290 -302 -290 -6 0 116 127 272 283 188 188
285 292 291 312 8 31 -81 -56 -374 -365 -159 -168 -179 -188 -168 -168 5 10
49 59 98 110 166 172 414 443 446 488 32 44 113 132 259 279 41 42 123 128
182 191 58 63 130 140 160 170 29 30 69 75 88 99 54 68 98 119 180 206 87 93
348 378 370 405 14 17 18 15 60 -23 25 -22 109 -104 187 -182z m1451 172 c3
-23 0 -27 -23 -27 -30 0 -43 24 -25 46 19 22 45 13 48 -19z m-1406 -162 c41
-49 36 -45 -27 20 -119 123 -156 166 -87 100 35 -33 86 -87 114 -120z m-676
89 c11 -42 -36 -59 -59 -23 -15 24 -1 49 27 49 19 0 27 -7 32 -26z m-488 -17
l22 -24 -20 -18 c-23 -21 -25 -45 -8 -93 11 -28 10 -36 -2 -45 -8 -7 -16 -19
-18 -27 -6 -27 -19 -32 -36 -14 -18 17 -17 25 5 82 12 29 11 37 -10 77 -23 44
-23 46 -6 65 24 26 47 25 73 -3z m-935 -169 c203 -203 583 -595 630 -650 27
-32 47 -62 45 -68 -9 -27 -122 76 -428 389 -320 327 -396 411 -383 425 16 16
40 -1 136 -96z m3545 16 c12 -8 22 -26 22 -39 0 -26 -35 -65 -57 -65 -20 0
-53 37 -53 60 0 22 33 60 53 60 7 0 23 -7 35 -16z m-4189 -18 c39 -21 88 -79
96 -114 13 -63 -41 -170 -96 -187 -18 -6 -19 -17 -19 -190 0 -101 3 -191 6
-200 6 -14 32 -16 243 -13 l236 2 90 -89 c138 -138 355 -373 355 -384 0 -25
-31 -7 -105 62 -43 39 -92 86 -109 103 -17 18 -80 82 -140 143 l-110 111 -253
0 -253 0 -2 123 c-1 87 -3 109 -8 77 -5 -30 -7 1 -8 96 l-2 142 -29 5 c-35 7
-87 50 -106 88 -20 37 -19 113 1 155 33 69 144 105 213 70z m4186 -216 c0 -20
-6 -26 -27 -28 -24 -3 -28 0 -28 21 0 30 9 39 35 35 14 -2 20 -10 20 -28z
m-3704 -49 c27 -16 52 -43 62 -64 20 -40 22 -118 5 -135 -8 -8 25 -49 138
-167 286 -300 348 -370 331 -373 -28 -6 -95 55 -352 319 -170 175 -156 164
-197 139 -100 -61 -229 22 -231 149 -1 59 25 105 78 137 55 33 109 32 166 -5z
m2337 -19 c3 -18 -1 -22 -22 -22 -31 0 -42 16 -25 36 17 21 43 13 47 -14z
m367 -61 c33 -19 75 -84 75 -117 0 -12 -7 -41 -15 -64 l-15 -43 42 -46 c22
-25 62 -68 88 -96 100 -107 341 -377 456 -510 67 -77 169 -194 228 -260 119
-135 145 -189 34 -70 -82 88 -114 121 -318 331 -150 154 -201 208 -355 379
-49 55 -117 129 -151 164 l-61 64 -47 -13 c-86 -24 -170 27 -195 116 -14 51
-4 86 36 133 53 62 126 74 198 32z m1028 7 c8 -26 -5 -48 -29 -48 -29 0 -41
24 -24 45 15 18 47 20 53 3z m-1378 -250 c99 -101 225 -230 280 -288 55 -58
181 -190 281 -295 99 -104 223 -236 274 -292 69 -76 101 -104 124 -108 105
-21 136 -29 136 -38 0 -5 -6 -7 -12 -4 -7 2 -43 1 -80 -4 l-66 -8 -134 132
c-295 291 -908 932 -971 1014 -23 31 -44 50 -51 46 -6 -4 -5 1 3 10 7 9 19 17
25 17 6 0 92 -82 191 -182z m670 47 c0 -11 -7 -20 -15 -20 -8 0 -18 -4 -22
-10 -10 -13 -22 21 -14 41 9 23 51 14 51 -11z m-1486 -225 c1 -37 -5 -52 -30
-80 -29 -32 -30 -33 -14 -6 16 26 17 48 13 170 l-6 141 19 -90 c10 -49 18
-110 18 -135z m-62 34 l-2 -147 -81 -76 c-69 -64 -157 -158 -272 -290 -22 -25
-22 -25 -20 -4 3 22 125 160 274 308 l80 80 -9 128 c-9 108 -8 130 4 138 8 5
17 9 21 9 4 0 6 -66 5 -146z m673 36 c27 -19 440 -444 569 -585 137 -150 436
-488 444 -501 5 -9 3 -14 -6 -14 -25 0 -80 56 -715 731 -188 199 -195 206
-230 204 -331 -19 -472 -17 -472 5 0 6 99 11 240 12 l240 3 -57 63 -58 62
-113 1 c-179 2 -112 30 86 37 30 1 53 -4 72 -18z m-2795 -185 c17 -16 25 -35
25 -59 0 -32 2 -35 40 -41 35 -6 55 -23 172 -148 73 -78 179 -190 235 -250 60
-62 103 -115 103 -127 0 -11 -3 -20 -7 -20 -3 0 -45 39 -91 88 -47 48 -89 86
-94 84 -4 -1 -7 1 -6 5 1 5 -70 81 -159 170 l-162 162 -66 7 c-75 8 -102 25
-111 71 -5 26 -1 37 19 57 33 33 71 33 102 1z m646 -26 c47 -16 97 -66 111
-111 8 -29 8 -51 -1 -94 -12 -53 -12 -57 11 -82 12 -15 26 -29 29 -32 15 -12
101 -117 110 -133 20 -35 -42 7 -125 87 -76 72 -80 75 -105 62 -99 -50 -210
-1 -240 107 -17 58 -7 99 32 144 51 58 108 75 178 52z m2261 -266 c116 -120
284 -300 372 -399 35 -40 35 -42 14 -47 -22 -6 -56 27 -373 363 -50 52 -98
101 -108 108 -13 10 -81 13 -295 13 -152 -1 -290 3 -307 8 l-30 8 40 7 c22 4
49 10 60 13 18 6 215 15 451 21 l81 2 95 -97z m-632 -63 l114 -120 112 0 c109
0 112 -1 149 -30 43 -34 43 -34 69 -15 56 42 136 -1 136 -73 0 -49 -29 -72
-90 -72 -35 0 -42 4 -64 39 -13 21 -42 52 -64 70 -39 31 -41 31 -152 31 l-113
0 -54 55 c-29 31 -53 53 -53 50 0 -3 -15 11 -32 31 -18 21 -32 41 -30 46 1 4
-2 8 -8 8 -13 0 -50 32 -50 43 0 4 5 5 10 2 18 -11 11 1 -12 21 -22 19 -23 19
-8 -1 13 -19 13 -19 -6 -2 -16 15 -17 19 -4 27 8 5 20 10 26 10 6 0 62 -54
124 -120z m-883 12 c-15 -16 -27 -33 -27 -38 0 -12 -89 -88 -96 -81 -2 2 15
22 38 43 24 21 41 39 38 41 -3 1 10 18 29 37 19 20 37 33 40 31 2 -3 -8 -18
-22 -33z m-1817 17 c-11 -8 -12 -12 -2 -16 6 -2 12 -12 12 -21 0 -15 2 -15 11
-2 9 12 12 13 16 1 4 -11 7 -11 14 0 4 7 11 10 16 6 4 -5 3 -11 -3 -15 -6 -4
-14 -14 -17 -22 -4 -12 -6 -11 -6 3 -1 9 -5 17 -11 17 -5 0 -11 -8 -11 -17 -1
-16 -2 -15 -6 1 -4 15 -7 16 -15 5 -7 -10 -8 -8 -3 7 3 13 -1 26 -10 34 -22
18 -19 30 8 30 18 0 19 -2 7 -11z m2090 -85 c0 -47 -4 -73 -10 -69 -5 3 -10
37 -10 76 0 39 4 69 10 69 6 0 10 -32 10 -76z m-2123 50 c-3 -3 -12 -4 -19 -1
-8 3 -5 6 6 6 11 1 17 -2 13 -5z m411 -28 c2 -10 -1 -23 -8 -30 -8 -8 -10 -6
-5 9 5 16 4 16 -7 -3 -12 -19 -16 -21 -32 -9 -28 21 -13 59 22 55 17 -2 28
-10 30 -22z m1602 -26 c0 -34 -47 -94 -193 -245 -92 -94 -169 -166 -173 -161
-5 4 36 51 92 105 156 148 244 247 250 281 6 28 24 43 24 20z m-371 -129 c-41
-43 -116 -124 -167 -180 -52 -55 -101 -101 -110 -101 -9 0 13 27 53 64 39 35
119 118 180 184 60 67 112 119 114 116 2 -2 -29 -39 -70 -83z m77 36 c-15 -19
-26 -39 -26 -44 0 -6 -34 -41 -75 -78 -91 -81 -99 -75 -12 9 35 34 76 80 91
104 14 23 31 42 37 42 5 0 -1 -15 -15 -33z m1082 -159 l242 -2 54 -55 c103
-106 305 -346 294 -350 -6 -2 -61 48 -123 110 -61 63 -122 123 -136 134 -13
11 -44 44 -69 72 l-45 53 -242 0 c-233 0 -243 1 -253 20 -6 12 -16 18 -23 14
-7 -4 -9 -4 -5 0 4 5 -2 18 -13 30 -12 11 -42 47 -67 78 -26 32 -54 58 -62 58
-11 1 -10 4 5 16 19 15 25 11 111 -80 l91 -96 241 -2z m2423 102 c-24 -21 -67
-28 -56 -9 4 5 12 8 18 6 7 -2 18 2 25 10 7 7 19 13 25 13 7 -1 1 -10 -12 -20z
m-3536 -56 c-16 -15 -74 -66 -127 -115 -53 -49 -102 -89 -108 -89 -9 0 -9 5 1
17 26 30 243 213 253 213 6 0 -2 -12 -19 -26z m3519 -2 c2 -4 -7 -12 -20 -19
-27 -12 -30 -9 -11 12 14 16 24 18 31 7z m-4544 -23 c22 -12 53 -46 77 -82 37
-56 39 -63 31 -101 -11 -50 -59 -151 -73 -151 -5 -1 -19 -6 -30 -12 -55 -30
-118 -33 -206 -9 -20 6 -33 1 -57 -19 -18 -15 -32 -22 -32 -16 0 6 15 21 34
33 l34 22 -28 51 c-16 27 -34 69 -40 93 -10 40 -9 47 19 96 17 29 38 59 48 68
60 52 157 64 223 27z m1710 -121 c33 -35 60 -66 60 -70 0 -22 -30 -2 -76 47
l-51 55 -97 0 c-53 0 -96 4 -96 9 0 11 40 17 133 19 l68 2 59 -62z m598 45
c-26 -2 -71 -2 -100 0 -29 2 -8 3 47 3 55 0 79 -1 53 -3z m516 -12 c23 -26 17
-56 -11 -56 -12 0 -25 -4 -29 -8 -4 -4 -14 -1 -22 6 -8 6 -18 11 -21 9 -3 -2
-8 4 -9 13 -5 23 26 55 53 55 12 0 30 -9 39 -19z m-2714 -310 c-1 -14 -3 -13
-14 2 -7 9 -20 17 -29 17 -17 0 -30 27 -21 42 8 13 64 -41 64 -61z m1392 -431
c-1 -272 -4 -495 -5 -497 -2 -1 -13 0 -25 4 -21 5 -22 11 -24 102 -1 60 -3 76
-5 43 -3 -42 -7 -52 -19 -48 -7 3 -14 2 -14 -2 0 -4 -9 -8 -20 -9 -11 -1 -18
2 -15 8 4 5 3 14 -1 20 -4 8 -9 7 -15 -2 -4 -7 -24 -13 -43 -12 -27 1 -36 -3
-37 -15 0 -11 -2 -12 -6 -4 -2 6 -16 12 -29 12 -25 0 -33 15 -11 23 6 2 2 2
-10 1 -12 -2 -23 -1 -26 4 -2 4 -2 0 1 -8 9 -30 7 -43 -8 -47 -9 -3 -11 -1 -4
4 7 5 6 16 -3 33 l-13 25 -2 -30 c-2 -39 -15 233 -18 400 l-3 130 -14 -135
c-15 -152 -10 -460 9 -471 7 -4 3 -11 -11 -18 -11 -7 -21 -8 -21 -4 0 4 -2
229 -6 498 l-6 490 204 0 203 0 -3 -495z m770 482 c26 -17 170 -146 448 -401
208 -192 194 -180 186 -153 -8 23 8 31 18 10 3 -7 3 -3 0 10 -3 13 -2 28 3 35
4 7 5 37 2 67 l-7 55 2 -58 c0 -31 -1 -57 -4 -57 -4 0 -6 105 -6 233 0 127 -4
241 -7 253 -7 21 -6 21 200 20 l208 0 0 -499 0 -498 -25 7 c-14 4 -82 6 -152
5 -70 -2 -136 0 -148 4 -48 15 0 25 128 27 121 1 128 2 62 8 -41 4 -97 5 -123
3 -30 -1 -46 1 -42 7 3 6 1 10 -4 10 -6 0 -11 -4 -11 -10 0 -19 -45 -9 -81 18
-20 15 -83 65 -140 111 -57 47 -129 105 -159 130 -30 24 -61 51 -68 60 -11 13
-12 13 -7 1 4 -9 -2 -6 -12 5 -10 11 -25 21 -33 23 -7 2 -23 11 -34 22 -42 37
-111 96 -126 107 -13 10 -15 -21 -12 -264 l3 -275 -23 8 c-13 4 -75 6 -140 5
-121 -2 -188 5 -188 20 0 5 66 9 146 9 94 0 143 3 139 10 -3 6 -17 7 -31 4
-18 -5 -24 -3 -22 7 2 8 -13 15 -44 20 -26 4 -51 10 -57 13 -5 3 -33 8 -61 11
-46 4 -51 3 -40 -10 9 -11 9 -15 1 -15 -7 0 -10 -4 -6 -9 3 -5 0 -13 -6 -17
-8 -4 -9 -3 -5 4 4 7 1 12 -6 12 -9 0 -9 3 2 10 10 6 11 10 3 10 -10 0 -13 37
-14 148 -1 81 -5 219 -8 307 l-6 160 -9 -130 c-10 -143 -14 -521 -6 -544 3 -8
-2 -16 -10 -18 -13 -3 -15 58 -17 492 l-2 495 162 0 c139 0 166 -3 189 -18z
m-3218 -717 c-4 -8 -8 -15 -10 -15 -2 0 -4 7 -4 15 0 8 4 15 10 15 5 0 7 -7 4
-15z m1383 -110 c8 -9 14 -17 12 -18 -2 -2 -13 -9 -24 -17 -19 -14 -19 -14 -5
4 11 15 12 20 3 23 -7 3 -13 9 -13 14 0 13 9 11 27 -6z m944 -83 c-7 -2 -18 1
-23 6 -8 8 -4 9 13 5 13 -4 18 -8 10 -11z m-1029 -36 c6 4 9 1 6 -6 -10 -30
-28 -21 -27 12 1 23 3 26 6 10 3 -12 9 -19 15 -16z m1081 27 c-7 -2 -19 -2
-25 0 -7 3 -2 5 12 5 14 0 19 -2 13 -5z m-2110 -34 c-17 -17 -99 -23 -199 -14
-128 10 -85 25 76 25 100 0 131 -3 123 -11z m2117 2 c0 -24 -270 -27 -278 -3
-3 9 29 12 137 12 80 0 141 -4 141 -9z m-1222 -193 c-2 -17 -11 -24 -30 -26
l-28 -3 0 -85 c0 -84 0 -84 -26 -84 -18 0 -25 5 -23 18 1 9 1 50 0 91 l-1 73
-30 -4 c-26 -4 -30 -1 -30 19 0 22 3 23 86 23 83 0 85 -1 82 -22z m312 -3 c0
-23 -4 -25 -45 -25 -38 0 -45 -3 -45 -20 0 -17 7 -20 40 -20 36 0 40 -2 40
-26 0 -24 -3 -26 -40 -22 -36 3 -40 1 -40 -19 0 -21 5 -23 45 -23 38 0 45 -3
45 -20 0 -18 -7 -20 -54 -20 -30 0 -61 -3 -70 -6 -14 -5 -16 8 -16 104 l0 111
53 4 c28 2 60 4 70 5 12 1 17 -5 17 -23z m360 10 c20 -24 2 -37 -41 -30 -27 5
-45 3 -55 -6 -63 -52 -6 -167 64 -130 29 15 32 14 32 -13 0 -44 -84 -50 -130
-8 -57 51 -49 144 14 183 37 23 99 25 116 4z m250 -30 l0 -45 50 0 50 0 0 46
c0 38 3 45 18 42 15 -3 17 -18 20 -111 l3 -107 -26 0 c-23 0 -25 4 -25 45 l0
45 -45 0 -45 0 0 -51 c0 -43 -3 -50 -17 -47 -16 3 -18 18 -21 116 -3 107 -2
112 18 112 17 0 20 -6 20 -45z m454 -12 c51 -86 56 -87 56 -10 0 65 1 67 25
67 l25 0 0 -110 0 -110 -29 0 c-25 0 -35 10 -75 73 l-45 72 4 -72 c4 -72 4
-73 -20 -73 l-25 0 0 111 0 110 27 -3 c20 -2 34 -16 57 -55z m502 33 c40 -27
52 -115 21 -156 -22 -29 -61 -50 -94 -50 -81 0 -134 118 -83 183 13 16 32 33
44 38 27 11 82 4 112 -15z m294 -66 l0 -90 45 0 c42 0 45 -2 45 -26 0 -20 -4
-25 -16 -20 -9 3 -39 6 -67 6 l-52 0 3 110 c3 101 5 110 23 110 17 0 19 -8 19
-90z m429 64 c36 -30 48 -78 32 -127 -16 -48 -43 -68 -95 -74 -42 -5 -48 -3
-81 30 -30 30 -35 42 -35 82 0 40 5 52 34 81 44 44 99 47 145 8z m362 6 c20
-16 22 -21 10 -29 -9 -6 -22 -6 -32 0 -50 27 -93 -11 -87 -77 5 -68 87 -88 96
-24 3 20 1 22 -22 16 -22 -5 -26 -3 -26 14 0 17 7 20 39 20 l38 0 7 -51 c4
-32 3 -56 -3 -62 -15 -15 -104 -14 -133 2 -68 36 -63 166 7 197 43 19 79 17
106 -6z m263 -28 l29 -47 21 48 c17 40 24 47 48 47 l29 0 -41 -73 c-26 -48
-40 -86 -40 -110 0 -21 -4 -37 -9 -37 -5 0 -16 -2 -23 -5 -11 -4 -14 6 -15 42
-1 36 -10 64 -37 111 -20 35 -36 66 -36 68 0 2 10 4 23 4 15 -1 31 -15 51 -48z
m1136 -36 c0 -2 -107 -78 -237 -169 -131 -90 -294 -204 -363 -252 -69 -49
-199 -141 -290 -204 -91 -63 -250 -174 -355 -247 -104 -73 -250 -175 -324
-226 -74 -51 -184 -129 -245 -172 -61 -43 -156 -110 -211 -148 -55 -38 -160
-111 -233 -161 -291 -202 -407 -277 -418 -273 -7 3 -95 62 -196 132 -101 70
-277 194 -393 274 -115 80 -266 186 -335 235 -69 48 -161 113 -205 144 -44 30
-215 149 -380 264 -165 115 -445 306 -623 425 -177 118 -320 217 -318 219 9 9
604 -382 973 -640 73 -50 187 -131 255 -178 68 -47 179 -125 248 -174 69 -48
258 -180 420 -293 162 -113 355 -247 428 -299 l133 -95 32 24 c17 14 82 59
142 100 61 41 162 112 225 156 63 45 147 103 185 130 39 27 123 86 189 133
120 85 295 207 396 276 30 20 119 83 197 138 78 55 217 152 309 215 92 63 186
129 209 146 131 98 768 524 783 524 1 0 2 -2 2 -4z m-4628 -164 c73 -48 212
-141 308 -207 96 -65 222 -151 280 -190 58 -39 165 -114 238 -166 171 -121
342 -241 462 -324 52 -37 125 -87 161 -113 36 -26 110 -78 165 -117 54 -38
112 -80 129 -92 124 -89 196 -134 206 -127 8 4 9 3 5 -4 -18 -29 -23 -33 384
253 118 83 274 193 347 245 217 156 314 224 331 235 10 6 82 55 162 111 255
177 531 368 690 477 l155 107 187 0 c119 0 188 -4 188 -10 0 -6 -61 -10 -163
-10 l-162 0 -68 -45 c-37 -25 -65 -50 -62 -55 3 -5 0 -12 -6 -16 -8 -4 -9 -3
-5 4 10 16 -5 14 -28 -3 -10 -7 -15 -18 -12 -23 3 -6 -2 -8 -14 -5 -12 3 -22
-1 -26 -11 -3 -9 -9 -14 -13 -12 -10 7 -81 -50 -73 -58 4 -4 2 -6 -3 -5 -6 2
-25 -5 -42 -16 -24 -14 -29 -22 -20 -28 8 -6 6 -7 -6 -3 -19 6 -80 -32 -71
-45 2 -4 -1 -11 -7 -15 -8 -4 -9 -3 -5 4 13 22 -5 12 -90 -44 -46 -31 -81 -61
-77 -67 3 -6 1 -7 -6 -3 -14 9 -43 -12 -35 -25 3 -5 -2 -6 -10 -3 -9 4 -18 -1
-22 -10 -3 -9 -10 -13 -15 -10 -5 3 -9 0 -9 -5 0 -6 -4 -11 -10 -11 -16 0
-125 -81 -122 -92 1 -5 -2 -7 -8 -3 -6 4 -43 -17 -82 -45 -39 -29 -126 -89
-192 -134 -67 -45 -200 -138 -296 -206 -233 -165 -662 -461 -677 -467 -7 -3
-59 28 -115 68 -57 40 -146 102 -198 139 -52 36 -120 84 -150 105 -55 39 -341
239 -436 305 -28 19 -103 71 -165 116 -261 184 -321 224 -331 218 -6 -4 -8 -2
-5 3 7 12 -140 110 -157 105 -6 -2 -8 0 -4 4 10 10 -29 37 -42 29 -6 -4 -9 -2
-8 3 4 15 -111 94 -124 86 -6 -4 -8 -3 -5 2 3 6 -38 39 -91 74 -53 35 -141 95
-195 132 l-98 68 -172 1 c-95 1 -183 5 -197 9 -14 5 65 8 187 9 l213 1 132
-88z m1986 -162 c14 -1 13 -3 -3 -12 -40 -23 -265 -230 -259 -239 3 -5 0 -8
-7 -7 -7 2 -13 -2 -14 -9 0 -6 -4 -15 -9 -20 -5 -4 -6 -3 -2 4 4 8 -2 11 -21
9 -17 -2 -41 7 -67 25 -38 28 -116 42 -116 20 0 -4 12 -6 28 -3 31 5 30 5 -17
-28 -19 -13 -31 -18 -27 -11 6 9 1 12 -20 9 -23 -2 -32 -10 -41 -38 l-12 -35
0 32 c-1 20 8 43 24 62 51 60 145 65 204 10 l33 -29 71 76 c100 107 206 197
224 190 8 -3 22 -6 31 -6z m674 -27 c-20 -14 -59 -48 -86 -77 -27 -28 -46 -44
-41 -36 5 8 -45 -38 -111 -102 -65 -65 -142 -139 -170 -165 -28 -27 -83 -82
-122 -124 -39 -42 -74 -74 -78 -70 -4 3 -2 -4 5 -16 14 -27 14 -103 1 -123 -7
-11 -8 -6 -4 16 7 34 -4 60 -39 97 -32 33 -83 67 -91 60 -3 -3 -6 -1 -6 5 0
19 -88 -7 -122 -36 -10 -8 -18 -12 -18 -9 0 10 -45 -36 -58 -58 -11 -19 -11
-19 -12 4 0 36 45 106 84 130 65 40 178 20 236 -41 19 -21 20 -21 20 -2 0 13
94 111 262 274 312 304 317 308 357 302 l31 -4 -38 -25z m345 29 c9 -6 -2 -19
-35 -44 -91 -71 -245 -225 -237 -238 5 -9 4 -11 -4 -6 -11 7 -153 -126 -354
-332 -77 -79 -115 -108 -128 -95 -6 6 108 127 313 331 396 393 411 406 445
384z m-2377 -12 c0 -5 -6 -10 -12 -11 -10 0 -10 -2 0 -6 21 -8 13 -25 -10 -21
-15 2 -24 11 -26 26 -3 18 1 22 22 22 14 0 26 -4 26 -10z m433 -4 c43 -17 95
-78 102 -118 4 -18 1 -53 -4 -78 l-11 -45 172 -167 c95 -92 168 -167 163 -168
-10 0 -49 34 -262 227 -46 41 -87 71 -93 68 -6 -3 -7 1 -4 10 5 12 -4 9 -31
-9 -26 -18 -51 -26 -82 -26 -48 0 -87 15 -78 31 4 5 14 5 26 -2 12 -6 23 -8
26 -6 3 3 -8 12 -25 21 -16 8 -32 13 -34 10 -3 -2 -11 3 -19 13 -12 15 -12 16
3 11 14 -6 15 -2 7 27 -18 64 22 125 82 125 62 0 107 -62 94 -129 -6 -30 -5
-33 8 -22 12 9 16 9 20 -1 14 -39 37 53 25 99 -12 46 -70 84 -118 77 -19 -2
-49 -6 -67 -8 -35 -3 -83 -34 -83 -52 0 -7 -7 -14 -15 -18 -28 -10 -17 42 17
80 53 60 116 78 181 50z m642 5 c-11 -4 -90 -4 -175 -1 l-155 6 175 2 c96 0
166 -3 155 -7z m619 -1 c-26 -10 -230 -210 -226 -222 1 -4 -2 -8 -6 -8 -4 0
-55 -45 -112 -100 -69 -66 -108 -96 -114 -90 -7 7 61 81 199 220 195 195 212
210 245 209 29 0 32 -2 14 -9z m1059 -31 c-26 -23 -100 -89 -163 -148 -156
-145 -200 -184 -305 -272 -156 -130 -193 -155 -95 -63 52 49 198 187 325 306
187 177 235 218 258 218 28 0 27 -1 -20 -41z m-1751 -279 c-49 -74 -104 -91
-141 -44 -30 39 -26 51 5 15 14 -17 34 -31 44 -31 28 0 83 57 77 79 -3 14 1
18 17 17 l22 -1 -24 -35z m315 -302 c13 -12 23 -25 23 -29 0 -5 -11 3 -25 16
-51 51 -123 21 -135 -56 l-7 -44 -2 39 c-2 81 90 127 146 74z m-128 -159 c32
-26 91 -25 127 3 17 13 24 16 16 6 -8 -10 -10 -23 -6 -29 5 -8 3 -9 -6 -4 -10
6 -12 4 -6 -10 5 -14 4 -16 -7 -7 -8 7 -29 9 -50 5 -27 -4 -44 0 -64 13 -16
10 -30 18 -33 17 -3 -1 -6 6 -7 15 -1 9 -4 31 -7 47 -6 29 -6 29 7 -4 7 -18
23 -42 36 -52z m151 67 c0 -15 -48 -66 -62 -66 -5 0 4 12 21 26 17 14 31 32
31 40 0 8 2 14 5 14 3 0 5 -6 5 -14z m-99 -61 c11 -4 18 -9 16 -12 -8 -7 -67
26 -67 38 0 6 7 4 15 -5 8 -8 24 -18 36 -21z"/>
<path d="M4450 8079 c25 -6 99 -24 166 -40 215 -51 592 -108 524 -78 -117 51
-425 109 -650 123 -74 4 -79 4 -40 -5z"/>
<path d="M4945 7919 c32 -14 68 -21 100 -20 48 2 168 -10 289 -29 33 -5 61 -8
63 -6 2 1 -27 15 -64 30 -61 23 -85 27 -218 31 -82 2 -166 6 -185 10 -31 5
-29 3 15 -16z"/>
<path d="M5135 7833 c136 -72 278 -157 326 -195 20 -15 41 -28 46 -28 18 0 95
88 88 100 -4 6 -30 27 -59 46 -28 19 -66 46 -85 59 -28 21 -46 25 -100 25 -61
0 -261 29 -306 45 -11 4 30 -20 90 -52z m317 -40 c24 -28 26 -46 11 -75 -17
-36 -24 -36 -17 0 5 23 2 28 -15 28 -24 0 -26 -7 -9 -24 21 -21 -2 -26 -37 -7
-41 22 -44 38 -10 53 14 6 25 18 25 27 0 20 33 19 52 -2z"/>
<path d="M5455 7830 c3 -5 27 -24 53 -42 26 -17 67 -49 91 -70 48 -42 71 -48
71 -19 0 19 -37 46 -151 110 -59 32 -74 38 -64 21z"/>
<path d="M5720 7657 c-14 -30 -18 -32 -67 -32 -45 0 -57 -4 -84 -31 l-31 -31
64 -53 c34 -29 68 -55 75 -57 7 -3 41 21 75 52 35 31 75 64 91 73 15 9 27 19
27 22 0 4 -113 81 -129 87 -3 2 -13 -12 -21 -30z m78 -53 c30 -8 27 -15 -13
-41 l-35 -22 0 34 c0 36 6 40 48 29z m-100 -56 c2 -15 -3 -39 -11 -53 l-14
-27 -26 32 c-43 50 -35 83 18 78 24 -2 31 -8 33 -30z"/>
<path d="M6153 7445 c-67 -34 -126 -101 -154 -174 -80 -211 141 -421 364 -345
64 22 130 82 157 146 19 43 22 65 18 128 -5 87 -28 138 -84 193 -54 52 -98 71
-179 75 -60 3 -77 0 -122 -23z m193 -20 c46 -19 106 -83 135 -142 33 -69 28
-193 -8 -193 -10 0 -14 -6 -10 -20 3 -11 2 -18 -3 -15 -9 6 -32 -19 -25 -27 3
-3 -3 -11 -12 -19 -16 -12 -17 -12 -8 1 6 9 2 7 -9 -5 -10 -11 -22 -20 -27
-20 -5 0 -17 -8 -28 -17 -11 -9 -22 -14 -25 -11 -3 4 -6 1 -6 -5 0 -8 -18 -12
-47 -12 -34 0 -62 9 -108 35 -88 49 -145 130 -145 208 0 84 70 195 149 237 44
23 128 26 177 5z"/>
<path d="M6240 7380 c-180 -32 -233 -265 -82 -361 38 -24 57 -29 108 -29 55 0
68 4 106 33 48 36 88 105 88 153 0 70 -49 156 -105 186 -31 18 -77 25 -115 18z
m110 -53 c106 -71 101 -235 -10 -292 -40 -21 -119 -19 -153 3 -37 25 -76 79
-83 117 -12 67 35 150 111 194 29 17 91 6 135 -22z"/>
<path d="M6234 7315 c-44 -18 -94 -80 -94 -116 0 -50 55 -129 80 -114 4 3 8
37 7 75 -2 59 1 73 19 91 26 25 68 20 104 -13 20 -18 22 -28 17 -75 -3 -29 -4
-53 -2 -53 2 0 9 19 15 42 8 29 9 48 1 65 -13 28 -67 63 -98 63 -29 0 -94 -57
-86 -76 3 -8 -1 -14 -11 -14 -9 0 -16 -4 -16 -10 0 -5 4 -10 10 -10 11 0 40
-52 40 -72 0 -7 -16 5 -35 27 -48 56 -46 86 9 141 48 48 73 54 131 30 19 -8
35 -11 35 -7 0 23 -91 41 -126 26z"/>
<path d="M6252 7233 c-5 -10 -8 -22 -7 -28 2 -5 6 -23 9 -38 4 -15 11 -25 16
-22 6 3 10 -3 10 -14 0 -12 4 -21 9 -21 10 0 27 76 22 99 -2 13 0 13 13 2 21
-17 21 -80 0 -109 -8 -12 -11 -22 -5 -22 29 0 44 109 18 134 -16 16 -52 36
-66 36 -6 0 -14 -8 -19 -17z m48 -51 l-1 -27 -19 24 c-27 32 -27 55 0 41 13
-7 20 -21 20 -38z"/>
<path d="M4093 7581 c-17 -11 -37 -29 -42 -40 -18 -32 -13 -86 10 -115 16 -21
29 -26 64 -26 77 0 127 63 100 127 -27 62 -82 85 -132 54z m91 -32 c33 -39 34
-82 1 -114 -17 -18 -34 -25 -57 -23 l-33 1 32 4 c47 6 93 70 63 88 -6 4 -7 -1
-3 -12 4 -12 3 -15 -5 -8 -5 6 -12 19 -14 30 -5 31 -46 32 -74 1 -13 -14 -24
-31 -24 -38 0 -8 -4 -7 -10 4 -14 24 4 64 37 82 41 22 58 19 87 -15z"/>
<path d="M3606 7219 c-36 -43 -35 -91 3 -130 22 -21 39 -29 66 -29 27 0 44 8
66 29 38 39 39 87 3 130 -21 26 -33 31 -69 31 -36 0 -48 -5 -69 -31z m118 -4
c51 -47 19 -135 -49 -135 -67 0 -99 87 -50 135 31 32 65 32 99 0z"/>
<path d="M3632 7188 c-16 -16 -15 -60 1 -82 21 -28 67 -17 90 21 18 31 18 32
-2 52 -23 23 -70 28 -89 9z"/>
<path d="M7150 7213 c-51 -19 -73 -70 -48 -116 28 -53 71 -60 117 -21 68 57
13 167 -69 137z m57 -35 c26 -24 28 -36 12 -72 -14 -30 -65 -45 -84 -25 -26
26 -27 63 -5 92 26 33 46 34 77 5z"/>
<path d="M7140 7152 c0 -31 22 -58 40 -47 12 8 14 65 1 65 -5 0 -16 3 -25 6
-12 5 -16 -1 -16 -24z"/>
<path d="M4911 7134 c-26 -21 -31 -33 -31 -68 0 -33 6 -48 28 -68 43 -42 90
-41 133 1 47 48 38 116 -21 146 -42 22 -74 19 -109 -11z m119 -14 c22 -22 25
-54 11 -93 -8 -20 -16 -24 -48 -23 -44 1 -66 13 -57 29 4 7 4 9 -1 5 -13 -13
-35 12 -35 40 0 14 7 34 17 44 23 25 87 24 113 -2z"/>
<path d="M4956 7111 c-31 -6 -49 -31 -22 -31 9 0 16 -8 16 -20 0 -10 10 -25
22 -31 18 -10 24 -8 35 7 7 10 13 14 13 9 0 -5 5 -4 11 2 30 30 -22 74 -75 64z"/>
<path d="M3308 6966 c-41 -38 -39 -93 6 -140 41 -44 75 -47 123 -10 29 22 33
31 33 69 0 61 -31 95 -90 102 -38 4 -49 1 -72 -21z m111 -12 c24 -20 31 -34
31 -63 0 -20 -7 -46 -16 -57 -14 -18 -15 -18 -8 6 11 38 6 73 -15 94 -24 23
-58 16 -94 -20 -20 -19 -27 -22 -27 -11 0 30 13 49 44 63 43 18 50 18 85 -12z
m-38 -75 c11 -5 17 -14 14 -20 -10 -15 -51 -10 -66 8 -8 10 -9 14 -2 10 6 -4
14 -3 18 3 8 13 12 13 36 -1z"/>
<path d="M6657 6816 l-77 -84 26 -31 c14 -17 30 -31 34 -31 5 0 36 25 69 56
62 57 71 77 50 117 -7 11 14 -6 45 -39 32 -32 54 -52 50 -44 -12 24 -105 140
-112 140 -4 -1 -42 -38 -85 -84z"/>
<path d="M6770 6725 c-9 -11 -7 -22 11 -54 22 -39 22 -40 51 -25 35 18 36 46
2 73 -31 25 -47 26 -64 6z"/>
<path d="M6708 6663 l-37 -38 40 -45 40 -45 -6 35 c-3 19 -2 56 3 83 5 26 6
47 3 47 -4 0 -23 -17 -43 -37z"/>
<path d="M6905 6650 c-4 -11 -30 -36 -60 -54 -29 -19 -56 -44 -60 -55 -4 -13
-11 -18 -18 -14 -16 9 37 -62 79 -107 17 -19 51 -66 74 -105 24 -38 62 -97 85
-130 23 -33 53 -80 67 -105 69 -121 141 -257 163 -308 13 -31 24 -52 25 -46 1
40 -88 226 -195 409 -39 66 -93 157 -119 203 -39 65 -52 80 -62 71 -12 -9 -14
-1 -14 45 0 40 -4 58 -14 62 -27 10 -27 34 1 45 36 14 51 -3 66 -77 7 -34 27
-82 48 -114 40 -62 159 -268 159 -275 0 -9 93 -195 99 -200 4 -2 -8 40 -26 93
-89 255 -151 405 -239 580 -42 82 -54 99 -59 82z"/>
<path d="M7361 5334 c0 -11 3 -14 6 -6 3 7 2 16 -1 19 -3 4 -6 -2 -5 -13z"/>
<path d="M5568 6682 c-87 -92 -184 -203 -218 -247 -33 -44 -78 -94 -99 -111
-22 -17 -51 -45 -66 -62 -23 -27 -25 -36 -19 -86 l7 -57 -49 -44 c-51 -47 -45
-61 9 -23 49 33 57 48 57 104 0 36 5 56 16 65 9 8 28 31 42 53 13 22 48 67 76
101 28 33 69 83 91 111 36 44 104 119 263 285 30 32 53 62 51 67 -2 6 -75 -64
-161 -156z m-348 -422 c-30 -38 -49 -54 -34 -27 20 33 49 67 57 67 5 0 -6 -18
-23 -40z"/>
<path d="M5598 6647 c-213 -221 -209 -217 -153 -165 142 129 327 316 318 321
-5 3 -80 -67 -165 -156z"/>
<path d="M5546 6485 c-230 -233 -303 -315 -280 -315 4 0 102 96 218 213 303
306 363 373 327 366 -3 -1 -123 -119 -265 -264z"/>
<path d="M5833 6711 c1 -4 -48 -64 -108 -132 -148 -165 -191 -225 -90 -124 87
88 225 240 225 248 0 3 -7 7 -15 11 -8 3 -14 2 -12 -3z"/>
<path d="M5920 6613 c0 -5 -112 -122 -250 -258 -218 -218 -250 -253 -250 -280
l1 -30 19 23 c11 13 129 136 262 273 134 138 243 255 243 261 0 6 -6 13 -12
16 -7 2 -13 0 -13 -5z"/>
<path d="M5711 6296 c-240 -240 -272 -277 -269 -301 3 -25 19 -11 208 181 363
368 386 394 347 394 -7 0 -135 -123 -286 -274z"/>
<path d="M5480 6337 c-63 -67 -122 -126 -130 -132 -9 -5 -28 -19 -43 -31 l-26
-21 6 -181 c3 -99 10 -187 14 -194 21 -33 26 16 17 167 -9 173 -7 196 23 233
16 20 19 22 19 7 0 -12 9 -6 29 21 16 21 48 57 71 79 46 44 151 177 138 174
-2 0 -55 -55 -118 -122z"/>
<path d="M5333 6070 c-1 -41 3 -118 7 -170 6 -89 7 -91 7 -25 0 39 -3 115 -7
170 -6 96 -7 97 -7 25z"/>
<path d="M4885 5859 c-82 -88 -159 -175 -171 -194 -26 -43 -39 -57 -30 -30 4
12 -9 4 -34 -22 l-40 -42 6 -71 c6 -65 5 -73 -16 -95 -13 -14 -19 -25 -13 -25
15 0 53 44 57 66 2 10 7 41 10 67 8 51 -5 36 254 316 47 51 103 104 124 117
40 25 50 57 22 68 -9 3 -16 6 -17 5 -1 0 -69 -72 -152 -160z"/>
<path d="M5040 5848 c-57 -16 -80 -44 -80 -99 0 -38 5 -51 22 -63 31 -22 39
-21 90 20 58 45 72 93 37 130 -12 13 -25 24 -28 23 -3 0 -22 -5 -41 -11z m40
-92 c10 -13 10 -19 0 -31 -16 -20 -39 -19 -62 2 -22 20 -22 27 -2 47 17 17 40
10 64 -18z"/>
<path d="M3144 6530 c-31 -12 -64 -63 -64 -97 0 -37 36 -72 82 -79 30 -5 38
-2 67 32 28 32 32 42 27 73 -6 39 -45 81 -74 80 -9 0 -27 -4 -38 -9z m82 -35
c10 -15 14 -34 10 -48 -9 -36 -45 -77 -68 -77 -19 0 -19 1 5 20 14 11 29 29
32 40 4 11 11 18 16 15 22 -14 7 26 -16 41 -23 15 -26 15 -55 -6 -16 -12 -30
-30 -30 -41 0 -11 -4 -17 -10 -14 -16 10 -11 40 11 69 28 36 82 36 105 1z"/>
<path d="M3600 6277 c-32 -16 -64 -80 -56 -112 6 -25 45 -58 83 -69 29 -9 103
55 103 91 0 39 -27 80 -61 92 -39 14 -38 14 -69 -2z m83 -25 c47 -51 18 -132
-46 -132 -39 1 -77 30 -77 60 0 26 25 76 42 83 28 11 66 6 81 -11z"/>
<path d="M3602 6224 c-24 -17 -30 -62 -10 -82 20 -20 68 -14 89 11 24 28 24
42 -1 67 -24 24 -48 25 -78 4z"/>
<path d="M6302 6194 c-24 -17 -52 -64 -52 -89 0 -29 46 -65 83 -65 40 0 52 12
62 58 9 42 -7 62 -49 62 -40 0 -56 -16 -56 -54 0 -22 -3 -27 -11 -19 -29 29
23 103 71 103 42 0 64 -37 56 -93 -5 -39 -5 -40 9 -23 26 34 19 81 -16 110
-35 30 -65 33 -97 10z"/>
<path d="M3611 5604 c-61 -51 -31 -151 49 -168 59 -11 110 27 110 85 0 29 -8
45 -35 73 -43 44 -80 47 -124 10z m109 -26 c25 -42 25 -56 -2 -85 -33 -35 -83
-32 -103 7 -22 42 -19 66 11 89 39 31 71 27 94 -11z m10 -113 c-7 -8 -16 -15
-21 -15 -5 0 -1 9 8 20 9 11 19 17 21 15 3 -3 -1 -11 -8 -20z"/>
<path d="M3647 5572 c-22 -14 -27 -23 -25 -47 3 -27 7 -30 39 -33 43 -4 64 17
55 53 -9 36 -36 47 -69 27z"/>
<path d="M5328 5473 c12 -2 30 -2 40 0 9 3 -1 5 -23 4 -22 0 -30 -2 -17 -4z"/>
<path d="M3145 5016 c-81 -36 -109 -119 -64 -192 32 -52 96 -68 162 -41 18 8
37 12 44 10 16 -6 46 91 38 124 -17 78 -112 130 -180 99z m91 -34 c30 -25 56
-79 51 -105 -3 -18 -5 -16 -6 6 0 16 -5 26 -11 22 -5 -3 -10 0 -10 8 0 10 -12
13 -47 11 -123 -7 -123 -7 -123 -32 0 -13 4 -20 10 -17 6 3 7 -1 3 -10 -5 -13
-7 -14 -14 -3 -32 49 28 138 93 138 18 -1 43 -9 54 -18z m55 -19 c13 -16 12
-17 -3 -4 -10 7 -18 15 -18 17 0 8 8 3 21 -13z m-45 -91 c-17 -17 -76 -27 -76
-13 0 6 8 10 18 10 9 0 26 2 37 5 11 2 22 5 24 5 2 1 -4 11 -15 24 l-19 22 23
-19 c20 -17 21 -21 8 -34z m-91 -2 c3 -5 -1 -10 -10 -10 -9 0 -13 5 -10 10 3
6 8 10 10 10 2 0 7 -4 10 -10z m-31 -51 c-9 -15 -24 10 -17 29 5 12 7 12 15
-2 5 -9 6 -21 2 -27z m146 7 c0 -2 -8 -10 -17 -17 -16 -13 -17 -12 -4 4 13 16
21 21 21 13z"/>
<path d="M3006 4931 c-12 -18 2 -64 35 -115 16 -26 29 -51 29 -56 0 -5 4 -12
10 -15 6 -4 7 1 4 12 -4 14 -1 12 15 -5 21 -24 91 -40 91 -21 0 5 3 8 8 7 7
-3 82 41 82 47 0 2 -23 -7 -51 -21 -45 -23 -54 -24 -82 -13 -61 24 -104 76
-122 148 -7 26 -15 39 -19 32z"/>
<path d="M4545 3861 c-3 -6 10 -7 32 -4 50 8 55 13 10 13 -20 0 -38 -4 -42 -9z"/>
<path d="M6217 4136 c-3 -8 0 -19 7 -25 10 -8 12 -6 11 9 -2 26 -11 34 -18 16z"/>
<path d="M5334 3883 c11 -13 29 -22 40 -22 20 1 20 2 1 6 -11 3 -29 12 -40 22
-20 16 -20 16 -1 -6z"/>
<path d="M5310 3860 c0 -5 5 -10 10 -10 6 0 10 5 10 10 0 6 -4 10 -10 10 -5 0
-10 -4 -10 -10z"/>
<path d="M5440 3861 c0 -6 -10 -11 -22 -12 -19 -1 -18 -2 7 -10 33 -10 75 -4
75 11 0 6 -6 10 -14 10 -8 0 -21 3 -30 6 -9 3 -16 1 -16 -5z m27 -17 c-3 -3
-12 -4 -19 -1 -8 3 -5 6 6 6 11 1 17 -2 13 -5z"/>
<path d="M5541 3859 c0 -9 -11 -20 -23 -26 l-23 -10 23 -7 c30 -10 35 -5 29
31 -2 15 -5 21 -6 12z"/>
<path d="M6260 3830 c-8 -5 -12 -11 -10 -14 3 -2 14 2 24 10 22 15 10 19 -14
4z"/>
<path d="M6473 3803 c9 -2 25 -2 35 0 9 3 1 5 -18 5 -19 0 -27 -2 -17 -5z"/>
<path d="M5273 3552 c-42 -26 -28 -119 19 -136 61 -21 106 76 58 124 -20 20
-55 26 -77 12z"/>
<path d="M5993 3552 c-25 -16 -34 -61 -19 -97 18 -42 55 -55 91 -31 20 13 25
25 25 60 0 29 -6 48 -18 59 -19 18 -59 22 -79 9z"/>
<path d="M4695 2950 c-3 -5 -1 -10 4 -10 6 0 11 5 11 10 0 6 -2 10 -4 10 -3 0
-8 -4 -11 -10z"/>
<path d="M4182 3067 c-29 -30 -29 -86 -2 -115 29 -31 89 -30 118 1 26 28 27
47 7 88 -27 51 -88 64 -123 26z m66 -104 c-10 -2 -26 -2 -35 0 -10 3 -2 5 17
5 19 0 27 -2 18 -5z"/>
<path d="M2558 5463 c7 -3 16 -2 19 1 4 3 -2 6 -13 5 -11 0 -14 -3 -6 -6z"/>
<path d="M2618 5463 c7 -3 16 -2 19 1 4 3 -2 6 -13 5 -11 0 -14 -3 -6 -6z"/>
<path d="M2675 5450 c-3 -5 -1 -10 4 -10 6 0 11 5 11 10 0 6 -2 10 -4 10 -3 0
-8 -4 -11 -10z"/>
<path d="M2598 5433 c7 -3 16 -2 19 1 4 3 -2 6 -13 5 -11 0 -14 -3 -6 -6z"/>
<path d="M7653 5094 c-1 -25 3 -42 8 -39 11 7 12 55 1 72 -4 6 -8 -9 -9 -33z"/>
<path d="M7726 5125 c10 -8 24 -14 29 -14 6 0 1 6 -9 14 -11 8 -24 15 -30 15
-5 0 -1 -7 10 -15z"/>
<path d="M7380 4421 l0 -91 310 0 310 0 -6 28 c-5 23 -1 32 19 45 13 8 34 34
45 56 l22 41 -304 0 c-167 0 -324 3 -350 6 l-46 7 0 -92z"/>
<path d="M2700 4206 c0 -2 8 -10 18 -17 15 -13 16 -12 3 4 -13 16 -21 21 -21
13z"/>
<path d="M7381 4080 l-2 -100 340 0 c188 0 341 4 341 8 0 5 -13 21 -30 37 -35
34 -37 48 -9 83 19 25 19 27 2 33 -10 4 -128 9 -263 11 l-245 2 230 6 c127 3
223 8 214 11 -8 4 -141 7 -295 8 l-280 1 -3 -100z m46 74 c-3 -3 -12 -4 -19
-1 -8 3 -5 6 6 6 11 1 17 -2 13 -5z m71 -1 c-10 -2 -28 -2 -40 0 -13 2 -5 4
17 4 22 1 32 -1 23 -4z"/>
<path d="M2386 4051 c-19 -7 -19 -8 2 -13 15 -4 22 -2 22 8 0 8 -1 14 -2 13
-2 0 -12 -4 -22 -8z"/>
<path d="M3319 3963 l-24 -28 28 24 c25 23 32 31 24 31 -2 0 -14 -12 -28 -27z"/>
<path d="M3205 3911 c-6 -11 13 -26 22 -17 4 3 1 6 -6 6 -7 0 -9 5 -6 10 3 6
4 10 1 10 -3 0 -7 -4 -11 -9z"/>
<path d="M3750 3899 c0 -5 5 -7 10 -4 6 3 10 8 10 11 0 2 -4 4 -10 4 -5 0 -10
-5 -10 -11z"/>
<path d="M3110 3892 c0 -6 -8 -13 -17 -15 -16 -4 -16 -5 -1 -6 18 -1 34 16 24
26 -3 4 -6 1 -6 -5z"/>
<path d="M7180 3861 c0 -10 19 -25 25 -20 1 2 -3 10 -11 17 -8 7 -14 8 -14 3z"/>
<path d="M7105 3830 c-3 -5 -1 -10 4 -10 6 0 11 5 11 10 0 6 -2 10 -4 10 -3 0
-8 -4 -11 -10z"/>
<path d="M7150 3810 c19 -13 30 -13 30 0 0 6 -10 10 -22 10 -19 0 -20 -2 -8
-10z"/>
<path d="M8047 3801 c-2 -10 -1 -25 4 -32 6 -10 9 -4 9 19 0 36 -5 42 -13 13z"/>
<path d="M7088 3803 c6 -2 18 -2 25 0 6 3 1 5 -13 5 -14 0 -19 -2 -12 -5z"/>
</g>
</svg>
